<svg width="195" height="60" viewBox="0 0 195 60" fill="none" xmlns="http://www.w3.org/2000/svg">
<path d="M7.68801 52.4513C5.42245 52.4513 3.74186 51.8477 2.64622 50.6407C1.55059 49.4151 0.835636 47.7623 0.501374 45.6825C0.167112 43.6026 -1.87308e-05 41.2721 -1.87308e-05 38.6908V21.6713C-1.87308e-05 19.4243 0.269248 17.4095 0.807781 15.6267C1.34631 13.8254 2.21911 12.3955 3.42617 11.3371C4.65179 10.2786 6.26739 9.74931 8.27297 9.74931C9.46145 9.74931 10.5292 10.0371 11.4763 10.6128C12.4234 11.1699 13.1569 11.9127 13.6769 12.8412V2.59053H21.0585V52.0334H13.6769V48.1616C13.1198 49.5729 12.3398 50.6407 11.337 51.3649C10.3342 52.0892 9.11791 52.4513 7.68801 52.4513ZM10.4178 46.5738C11.3092 46.5738 11.987 46.3139 12.4512 45.7939C12.9341 45.2554 13.259 44.4383 13.4262 43.3426C13.6119 42.2284 13.7047 40.8264 13.7047 39.1365V22.4234C13.7047 20.3807 13.5005 18.7558 13.0919 17.5488C12.7019 16.3417 11.8477 15.7382 10.5292 15.7382C9.26647 15.7382 8.43081 16.3324 8.02227 17.5209C7.6323 18.6908 7.43731 20.3528 7.43731 22.507V39.6936C7.43731 41.1235 7.52088 42.3584 7.68801 43.3983C7.87371 44.4197 8.18011 45.2089 8.60723 45.766C9.03434 46.3046 9.63787 46.5738 10.4178 46.5738ZM28.5237 52.0334V10.2507H35.9053V52.0334H28.5237ZM28.4958 6.40669V-1.51992e-06H35.9331V6.40669H28.4958ZM53.1198 52.5348C51.0214 52.5348 49.2943 52.2006 47.9387 51.5321C46.6017 50.8635 45.5525 49.8979 44.7911 48.6351C44.0483 47.3723 43.5283 45.8589 43.2312 44.0947C42.9341 42.312 42.7855 40.325 42.7855 38.1337V22.5627C42.7855 20.6128 42.9805 18.8487 43.3705 17.2702C43.779 15.6917 44.4011 14.3454 45.2368 13.2312C46.091 12.117 47.1959 11.2628 48.5515 10.6685C49.9072 10.0557 51.5413 9.74931 53.454 9.74931C55.4039 9.74931 57.0288 10.0464 58.3287 10.6407C59.6286 11.2349 60.65 12.0984 61.3928 13.2312C62.1541 14.364 62.6927 15.7289 63.0084 17.3259C63.3426 18.9044 63.5098 20.6964 63.5098 22.702V31.6435H50.2228V39.8607C50.2228 41.8849 50.3807 43.5098 50.6964 44.7354C51.0121 45.961 51.8756 46.5738 53.2869 46.5738C54.234 46.5738 54.9025 46.286 55.2925 45.7103C55.701 45.1347 55.9424 44.3454 56.0167 43.3426C56.1096 42.3213 56.156 41.1606 56.156 39.8607V36.1839H63.454V38.4123C63.454 40.6593 63.3148 42.6555 63.0362 44.4011C62.7762 46.1467 62.2748 47.623 61.532 48.8301C60.8078 50.0372 59.7679 50.9564 58.4123 51.5878C57.0566 52.2191 55.2925 52.5348 53.1198 52.5348ZM50.195 27.3259H56.156V21.9777C56.156 20.585 56.091 19.415 55.961 18.468C55.831 17.5023 55.571 16.7781 55.1811 16.2953C54.7911 15.8124 54.1968 15.571 53.3983 15.571C52.4141 15.571 51.6899 15.8589 51.2256 16.4345C50.7799 17.0102 50.4921 17.7994 50.3621 18.8022C50.2507 19.7865 50.195 20.9099 50.195 22.1727V27.3259ZM77.2702 52.312C75.4875 52.312 74.1226 52.0892 73.1755 51.6435C72.2284 51.1792 71.5785 50.455 71.2256 49.4708C70.8728 48.4866 70.6964 47.2145 70.6964 45.6546V16.4624H67.2981V11.1142H70.6964V3.00836H78.078V11.1142H82.1449V16.4624H78.078V44.3733C78.078 45.0232 78.1801 45.5153 78.3844 45.8496C78.5887 46.1839 78.9879 46.4067 79.5822 46.5181C80.195 46.6295 81.0957 46.6853 82.2841 46.6853V52.312H77.2702ZM95.1532 52.5906C92.2377 52.5906 90.0929 51.6528 88.7187 49.7772C87.3631 47.883 86.6853 44.8561 86.6853 40.6964V37.1031H90.8357V39.9722C90.8357 42.7948 91.1607 44.9768 91.8106 46.5181C92.4791 48.0409 93.4726 48.8022 94.7911 48.8022C96.1467 48.8022 97.1124 48.3659 97.688 47.4931C98.2823 46.6203 98.5794 45.0325 98.5794 42.7298C98.5794 41.6899 98.5051 40.6778 98.3566 39.6936C98.2266 38.7094 97.883 37.7066 97.3259 36.6853C96.7874 35.6453 95.896 34.5404 94.6518 33.3705L91.5599 30.4457C89.6472 28.6444 88.3101 26.8152 87.5488 24.9582C86.806 23.0826 86.4346 21.0956 86.4346 18.9972C86.4346 15.8774 87.1588 13.5562 88.6073 12.0334C90.0557 10.5107 91.9499 9.74931 94.2897 9.74931C95.8496 9.74931 97.2052 10.1486 98.3566 10.9471C99.5265 11.727 100.427 13.0641 101.059 14.9582C101.708 16.8524 102.033 19.4522 102.033 22.7577V25.3761H98.1337V22.0056C98.1337 19.0715 97.8273 16.9359 97.2145 15.5989C96.6203 14.2433 95.6732 13.5655 94.3733 13.5655C92.962 13.5655 91.9777 14.169 91.4206 15.376C90.8821 16.5645 90.6128 18.1059 90.6128 20C90.6128 20.8542 90.7057 21.6806 90.8914 22.4791C91.0771 23.2591 91.4485 24.0854 92.0056 24.9582C92.5813 25.831 93.4448 26.8338 94.5961 27.9666L97.5209 30.8357C99.4894 32.7484 100.873 34.6982 101.671 36.6853C102.47 38.6537 102.869 40.7521 102.869 42.9805C102.869 45.8217 102.247 48.1337 101.003 49.9165C99.7772 51.6992 97.8273 52.5906 95.1532 52.5906ZM109.109 59.4151V10.2507H113.259V13.454C113.835 12.0984 114.633 11.1792 115.655 10.6964C116.676 10.195 117.725 9.94429 118.802 9.94429C120.715 9.94429 122.136 10.5478 123.064 11.7549C124.011 12.9619 124.633 14.6147 124.93 16.7131C125.246 18.793 125.404 21.1606 125.404 23.8162V38.8022C125.404 41.4021 125.19 43.7419 124.763 45.8217C124.355 47.9016 123.593 49.5451 122.479 50.7521C121.384 51.9406 119.796 52.5348 117.716 52.5348C116.732 52.5348 115.831 52.1913 115.014 51.5042C114.215 50.7985 113.63 49.9722 113.259 49.0251V59.4151H109.109ZM117.493 48.8301C119.016 48.8115 120.019 48.0502 120.501 46.546C121.003 45.0418 121.254 42.5256 121.254 38.9972V22.4791C121.254 20.6407 121.179 19.0436 121.031 17.688C120.901 16.3324 120.576 15.2832 120.056 14.5404C119.554 13.7976 118.756 13.4262 117.66 13.4262C116.769 13.4262 115.989 13.6212 115.32 14.0111C114.67 14.4011 114.16 15.2461 113.788 16.546C113.436 17.8273 113.259 19.8236 113.259 22.5348V39.1365C113.259 42.4977 113.528 44.9582 114.067 46.5181C114.605 48.0594 115.747 48.8301 117.493 48.8301ZM133.426 52.0334V10.2507H137.577V14.9025C138.059 13.2869 138.895 12.0241 140.084 11.1142C141.291 10.2043 142.823 9.74931 144.68 9.74931C144.717 9.74931 144.735 9.92572 144.735 10.2786C144.754 10.6314 144.763 11.0492 144.763 11.532C144.763 11.9963 144.763 12.4048 144.763 12.7577C144.763 13.1105 144.763 13.2869 144.763 13.2869C143.853 13.2869 142.99 13.4076 142.173 13.649C141.356 13.8719 140.576 14.2711 139.833 14.8468C139.09 15.4225 138.338 16.2488 137.577 17.3259V52.0334H133.426ZM150.362 52.0334V10.2507H154.54V52.0334H150.362ZM150.362 6.40669V2.36769H154.513V6.40669H150.362ZM170.836 52.2841C169.053 52.2841 167.716 52.0892 166.825 51.6992C165.952 51.2906 165.367 50.6314 165.07 49.7215C164.791 48.793 164.652 47.5488 164.652 45.9889V13.4819H160.474V10.2507H164.652V3.00836H168.83V10.2507H173.761V13.4819H168.83V46.2117C168.83 46.9545 168.914 47.5116 169.081 47.883C169.267 48.2359 169.703 48.468 170.39 48.5794C171.077 48.6908 172.191 48.7465 173.733 48.7465V52.2841H170.836ZM187.103 52.5348C185.19 52.5348 183.677 52.182 182.563 51.4763C181.467 50.7521 180.659 49.7308 180.139 48.4123C179.619 47.0938 179.285 45.5339 179.137 43.7326C179.007 41.9313 178.942 39.9536 178.942 37.7995V23.7883C178.942 21.8199 179.025 19.9907 179.192 18.3008C179.359 16.5924 179.712 15.0975 180.251 13.8162C180.808 12.5348 181.634 11.5413 182.73 10.8357C183.844 10.1114 185.339 9.74931 187.215 9.74931C189.09 9.74931 190.548 10.1207 191.588 10.8635C192.628 11.5877 193.371 12.6091 193.816 13.9276C194.28 15.2275 194.559 16.7502 194.652 18.4958C194.763 20.2228 194.819 22.0984 194.819 24.1226V31.0864H183.092V39.4986C183.092 42.6927 183.296 45.0604 183.705 46.6017C184.132 48.1244 185.246 48.8858 187.047 48.8858C188.199 48.8858 189.025 48.5237 189.527 47.7995C190.028 47.0567 190.344 45.9982 190.474 44.624C190.604 43.2498 190.669 41.597 190.669 39.6658V36.546H194.708V37.9109C194.708 40.0279 194.661 41.9777 194.568 43.7605C194.494 45.5246 194.234 47.0659 193.788 48.3844C193.343 49.7029 192.591 50.7243 191.532 51.4485C190.492 52.1727 189.016 52.5348 187.103 52.5348ZM183.092 27.6045H190.669V22.2841C190.669 20.3714 190.622 18.7558 190.529 17.4373C190.455 16.1189 190.176 15.1161 189.694 14.429C189.229 13.7419 188.412 13.3983 187.242 13.3983C186.035 13.3983 185.135 13.779 184.54 14.5404C183.946 15.2832 183.556 16.3417 183.371 17.7159C183.185 19.0715 183.092 20.6685 183.092 22.507V27.6045Z" fill="#FF1B7D"/>
</svg>
