<svg width="382" height="267" viewBox="0 0 382 267" fill="none" xmlns="http://www.w3.org/2000/svg">
<path d="M229.652 224.268H232.375V218.375C232.375 217.288 233.065 216.566 233.973 216.566C234.868 216.566 235.469 217.179 235.469 218.145V224.268H238.109V218.272C238.109 217.256 238.69 216.566 239.681 216.566C240.55 216.566 241.202 217.109 241.202 218.202V224.268H243.919V217.665C243.919 215.537 242.653 214.322 240.825 214.322C239.387 214.322 238.268 215.057 237.866 216.182H237.763C237.45 215.044 236.447 214.322 235.098 214.322C233.775 214.322 232.771 215.025 232.362 216.182H232.247V214.45H229.652V224.268Z" fill="#3A86FF"/>
<path d="M246.07 224.268H248.793V214.45H246.07V224.268ZM247.438 213.184C248.25 213.184 248.914 212.564 248.914 211.804C248.914 211.049 248.25 210.429 247.438 210.429C246.632 210.429 245.968 211.049 245.968 211.804C245.968 212.564 246.632 213.184 247.438 213.184Z" fill="#3A86FF"/>
<path d="M253.697 218.592C253.704 217.326 254.458 216.585 255.557 216.585C256.65 216.585 257.309 217.301 257.302 218.503V224.268H260.025V218.017C260.025 215.728 258.683 214.322 256.637 214.322C255.18 214.322 254.125 215.038 253.684 216.182H253.569V214.45H250.974V224.268H253.697V218.592Z" fill="#3A86FF"/>
<path d="M269.752 224.268H271.235L273.383 216.726H273.536L275.684 224.268H277.167L280.159 214.45H278.573L276.451 221.941H276.349L274.278 214.45H272.667L270.571 221.967H270.468L268.346 214.45H266.761L269.752 224.268Z" fill="#3A86FF"/>
<path d="M285.042 224.498C286.755 224.498 287.65 223.578 287.957 222.939H288.034V224.268H289.542V217.799C289.542 214.68 287.164 214.322 285.911 214.322C284.428 214.322 282.741 214.833 281.974 216.623L283.406 217.135C283.738 216.419 284.524 215.652 285.963 215.652C287.35 215.652 288.034 216.387 288.034 217.646V217.697C288.034 218.426 287.292 218.362 285.502 218.592C283.681 218.829 281.693 219.231 281.693 221.481C281.693 223.399 283.176 224.498 285.042 224.498ZM285.272 223.143C284.071 223.143 283.201 222.606 283.201 221.558C283.201 220.407 284.25 220.049 285.426 219.896C286.065 219.819 287.778 219.64 288.034 219.333V220.714C288.034 221.941 287.062 223.143 285.272 223.143Z" fill="#3A86FF"/>
<path d="M299.25 216.649C298.777 215.255 297.716 214.322 295.773 214.322C293.702 214.322 292.168 215.498 292.168 217.16C292.168 218.515 292.973 219.423 294.776 219.845L296.412 220.228C297.403 220.458 297.869 220.931 297.869 221.609C297.869 222.453 296.974 223.143 295.568 223.143C294.335 223.143 293.561 222.613 293.293 221.558L291.861 221.916C292.212 223.584 293.587 224.473 295.594 224.473C297.876 224.473 299.429 223.226 299.429 221.532C299.429 220.164 298.572 219.302 296.821 218.873L295.364 218.515C294.2 218.228 293.676 217.838 293.676 217.083C293.676 216.24 294.571 215.626 295.773 215.626C297.09 215.626 297.633 216.355 297.895 217.032L299.25 216.649Z" fill="#3A86FF"/>
<path d="M305.97 214.45H303.873V212.098H302.365V214.45H300.882V215.728H302.365V221.865C302.365 223.578 303.745 224.396 305.024 224.396C305.586 224.396 305.944 224.294 306.149 224.217L305.842 222.862C305.714 222.887 305.509 222.939 305.177 222.939C304.512 222.939 303.873 222.734 303.873 221.456V215.728H305.97V214.45Z" fill="#3A86FF"/>
<path d="M312.25 224.473C314.244 224.473 315.702 223.476 316.162 221.993L314.704 221.583C314.321 222.606 313.432 223.118 312.25 223.118C310.479 223.118 309.258 221.973 309.188 219.87H316.315V219.231C316.315 215.575 314.142 214.322 312.096 214.322C309.437 214.322 307.673 216.419 307.673 219.436C307.673 222.453 309.412 224.473 312.25 224.473ZM309.188 218.566C309.29 217.039 310.371 215.677 312.096 215.677C313.733 215.677 314.781 216.904 314.781 218.566H309.188Z" fill="#3A86FF"/>
<path d="M229.652 241.268H232.375V235.375C232.375 234.288 233.065 233.566 233.973 233.566C234.868 233.566 235.469 234.179 235.469 235.145V241.268H238.109V235.272C238.109 234.256 238.69 233.566 239.681 233.566C240.55 233.566 241.202 234.109 241.202 235.202V241.268H243.919V234.665C243.919 232.537 242.653 231.322 240.825 231.322C239.387 231.322 238.268 232.057 237.866 233.182H237.763C237.45 232.044 236.447 231.322 235.098 231.322C233.775 231.322 232.771 232.025 232.362 233.182H232.247V231.45H229.652V241.268Z" fill="#3A86FF"/>
<path d="M248.87 241.453C250.321 241.453 251.26 240.821 251.74 239.907H251.816V241.268H254.399V234.646C254.399 232.306 252.417 231.322 250.231 231.322C247.879 231.322 246.332 232.447 245.955 234.237L248.473 234.441C248.659 233.789 249.24 233.31 250.218 233.31C251.145 233.31 251.676 233.777 251.676 234.582V234.62C251.676 235.253 251.004 235.336 249.298 235.503C247.355 235.681 245.61 236.333 245.61 238.526C245.61 240.469 246.997 241.453 248.87 241.453ZM249.649 239.574C248.812 239.574 248.211 239.184 248.211 238.436C248.211 237.669 248.844 237.292 249.803 237.158C250.397 237.075 251.369 236.934 251.695 236.717V237.759C251.695 238.788 250.845 239.574 249.649 239.574Z" fill="#3A86FF"/>
<path d="M258.787 231.45H255.974L258.787 236.359L255.872 241.268H258.685L260.589 237.874L262.526 241.268H265.307L262.386 236.359L265.23 231.45H262.437L260.589 234.882L258.787 231.45Z" fill="#3A86FF"/>
<path d="M276.474 231.45H274.377V229.098H272.868V231.45H271.386V232.728H272.868V238.865C272.868 240.578 274.249 241.396 275.528 241.396C276.09 241.396 276.448 241.294 276.653 241.217L276.346 239.862C276.218 239.887 276.013 239.939 275.681 239.939C275.016 239.939 274.377 239.734 274.377 238.456V232.728H276.474V231.45Z" fill="#3A86FF"/>
<path d="M281.632 241.498C283.345 241.498 284.24 240.578 284.547 239.939H284.623V241.268H286.132V234.799C286.132 231.68 283.754 231.322 282.501 231.322C281.018 231.322 279.331 231.833 278.564 233.623L279.996 234.135C280.328 233.419 281.114 232.652 282.552 232.652C283.939 232.652 284.623 233.387 284.623 234.646V234.697C284.623 235.426 283.882 235.362 282.092 235.592C280.27 235.829 278.283 236.231 278.283 238.481C278.283 240.399 279.765 241.498 281.632 241.498ZM281.862 240.143C280.66 240.143 279.791 239.606 279.791 238.558C279.791 237.407 280.839 237.049 282.015 236.896C282.655 236.819 284.368 236.64 284.623 236.333V237.714C284.623 238.941 283.652 240.143 281.862 240.143Z" fill="#3A86FF"/>
<path d="M295.84 233.649C295.367 232.255 294.306 231.322 292.363 231.322C290.292 231.322 288.758 232.498 288.758 234.16C288.758 235.515 289.563 236.423 291.365 236.845L293.002 237.228C293.993 237.458 294.459 237.931 294.459 238.609C294.459 239.453 293.564 240.143 292.158 240.143C290.924 240.143 290.151 239.613 289.883 238.558L288.451 238.916C288.802 240.584 290.177 241.473 292.184 241.473C294.466 241.473 296.019 240.226 296.019 238.532C296.019 237.164 295.162 236.302 293.411 235.873L291.954 235.515C290.79 235.228 290.266 234.838 290.266 234.083C290.266 233.24 291.161 232.626 292.363 232.626C293.679 232.626 294.223 233.355 294.485 234.032L295.84 233.649Z" fill="#3A86FF"/>
<path d="M302.56 231.45H300.463V229.098H298.954V231.45H297.471V232.728H298.954V238.865C298.954 240.578 300.335 241.396 301.614 241.396C302.176 241.396 302.534 241.294 302.739 241.217L302.432 239.862C302.304 239.887 302.099 239.939 301.767 239.939C301.102 239.939 300.463 239.734 300.463 238.456V232.728H302.56V231.45Z" fill="#3A86FF"/>
<path d="M308.84 241.473C310.834 241.473 312.291 240.476 312.752 238.993L311.294 238.583C310.911 239.606 310.022 240.118 308.84 240.118C307.069 240.118 305.848 238.973 305.778 236.87H312.905V236.231C312.905 232.575 310.732 231.322 308.686 231.322C306.027 231.322 304.263 233.419 304.263 236.436C304.263 239.453 306.002 241.473 308.84 241.473ZM305.778 235.566C305.88 234.039 306.96 232.677 308.686 232.677C310.323 232.677 311.371 233.904 311.371 235.566H305.778Z" fill="#3A86FF"/>
<circle cx="282.923" cy="67.7512" r="46.8599" fill="#FFCD44"/>
<circle cx="243.873" cy="138.041" r="19.525" fill="#FFCD44"/>
<circle cx="243.873" cy="188.806" r="7.80998" fill="#FFCD44"/>
<circle cx="298.543" cy="157.566" r="27.3349" fill="#FFCD44"/>
<path d="M237.5 198.5L223.5 140.5L242.5 24.5L324.5 16" stroke="#FF006E"/>
<path d="M324 16.5L332.5 79L324.5 182L237 199" stroke="#FF006E"/>
<path d="M242.5 24.5L332 78.5L224 140.5L324 181.5" stroke="#FF006E" stroke-dasharray="2 2"/>
<path d="M104.597 139V46.6954H112.634C116.36 46.6954 119.374 47.7628 121.676 49.8978C123.979 51.9908 125.737 55.0467 126.951 59.0654C128.165 63.0841 128.981 67.9401 129.4 73.6332C129.86 79.3264 130.091 85.7521 130.091 92.9105C130.091 100.362 129.818 106.955 129.274 112.69C128.772 118.383 127.872 123.197 126.574 127.132C125.318 131.025 123.56 133.977 121.3 135.986C119.081 137.995 116.255 139 112.823 139H104.597ZM115.02 125.437C116.402 125.437 117.386 124.097 117.972 121.418C118.6 118.697 118.997 114.909 119.165 110.053C119.332 105.155 119.416 99.4618 119.416 92.9733C119.416 86.4847 119.332 80.7916 119.165 75.8938C118.997 70.9541 118.6 67.1238 117.972 64.4028C117.386 61.6399 116.402 60.2585 115.02 60.2585V125.437ZM136.974 139V46.6954H147.398V139H136.974ZM152.427 139V46.6954H173.274V60.6352H162.85V85.501H171.013V99.0641H162.85V125.06H173.274V139H152.427ZM184.709 139V60.6352H177.048V46.6954H202.793V60.6352H195.133V139H184.709ZM57.2623 243.005C54.4994 243.005 52.2599 242.23 50.5435 240.681C48.8691 239.091 47.5714 236.998 46.6504 234.402C45.7713 231.807 45.1643 228.939 44.8294 225.8C44.4945 222.618 44.3271 219.437 44.3271 216.255L54.4994 214.748C54.4994 215.46 54.5204 216.674 54.5622 218.39C54.6041 220.065 54.7088 221.844 54.8762 223.727C55.0436 225.611 55.3157 227.223 55.6925 228.562C56.0693 229.902 56.5925 230.572 57.2623 230.572C58.2251 230.572 58.8112 229.818 59.0205 228.311C59.2717 226.804 59.3972 224.586 59.3972 221.655C59.3972 218.055 58.8949 214.371 57.8902 210.604C56.8856 206.794 55.0855 202.315 52.4901 197.166C51.2342 194.613 50.0412 191.745 48.9109 188.564C47.7807 185.382 46.8597 182.201 46.1481 179.019C45.4364 175.796 45.0806 172.887 45.0806 170.291C45.0806 167.947 45.2481 165.519 45.5829 163.007C45.9178 160.496 46.5039 158.172 47.3411 156.037C48.2202 153.861 49.4342 152.102 50.9831 150.763C52.5738 149.381 54.625 148.691 57.1367 148.691C60.1508 148.691 62.495 149.423 64.1695 150.888C65.8858 152.312 67.1416 154.216 67.937 156.603C68.7324 158.989 69.2138 161.626 69.3812 164.514C69.5905 167.361 69.6952 170.207 69.6952 173.054L59.3972 174.561C59.3972 173.724 59.3763 172.573 59.3345 171.108C59.3345 169.642 59.2717 168.156 59.1461 166.649C59.0205 165.1 58.8112 163.803 58.5182 162.756C58.267 161.668 57.8902 161.124 57.3879 161.124C56.6344 161.124 56.153 161.982 55.9437 163.698C55.7344 165.372 55.6297 167.57 55.6297 170.291C55.6297 173.305 56.132 176.57 57.1367 180.087C58.1414 183.561 59.6903 187.538 61.7833 192.017C64.3788 197.459 66.3881 202.399 67.8114 206.836C69.2347 211.232 69.9463 215.753 69.9463 220.399C69.9463 222.576 69.7789 224.983 69.444 227.621C69.151 230.216 68.544 232.686 67.623 235.03C66.7439 237.332 65.4672 239.237 63.7927 240.744C62.1601 242.251 59.9833 243.005 57.2623 243.005ZM76.2668 242V149.695H86.188C89.9555 149.695 92.9695 150.993 95.23 153.588C97.4906 156.184 99.1232 159.596 100.128 163.824C101.133 168.01 101.635 172.51 101.635 177.324C101.635 182.264 101.195 186.827 100.316 191.013C99.479 195.157 97.972 198.506 95.7952 201.059C93.6602 203.613 90.6253 204.953 86.6903 205.078V242H76.2668ZM86.6903 191.264C88.0299 191.264 88.9927 190.615 89.5787 189.317C90.1648 187.978 90.5416 186.261 90.709 184.168C90.8764 182.033 90.9602 179.752 90.9602 177.324C90.9602 174.896 90.8764 172.615 90.709 170.48C90.5416 168.345 90.1648 166.607 89.5787 165.268C88.9927 163.928 88.0299 163.258 86.6903 163.258V191.264ZM107.172 242V149.695H117.094C121.991 149.695 125.612 151.956 127.957 156.477C130.343 160.956 131.536 167.57 131.536 176.319C131.536 180.715 131.138 184.817 130.343 188.627C129.589 192.436 128.396 195.324 126.764 197.292L133.168 242H122.368L117.91 201.813H117.596V242H107.172ZM117.596 191.138C118.726 191.138 119.563 190.448 120.108 189.066C120.694 187.643 121.091 185.843 121.301 183.666C121.51 181.447 121.615 179.166 121.615 176.822C121.615 173.305 121.363 170.145 120.861 167.34C120.359 164.535 119.27 163.133 117.596 163.133V191.138ZM136.974 242V149.695H147.398V242H136.974ZM158.832 242V163.635H151.171V149.695H176.916V163.635H169.255V242H158.832ZM180.634 242V149.695H201.481V163.635H191.058V188.501H199.221V202.064H191.058V228.06H201.481V242H180.634Z" fill="#FF1A7D"/>
</svg>
